PathFileType   4   (X/Y/Z)
DataRate	CameraRate	NumFrames	NumMarkers	Units	OrigDataRate	OrigDataStartFrame	OrigNumFrames
120.0	120.0	5	37	mm	120.0	111	126
Frame#	Time	midhip	hip_r	hip_l	knee_r	knee_l	ankle_r	ankle_l	midasis	asis_r	asis_l	psis_r	psis_l	epicondLat_r	epicondLat_l	epicondMed_r	epicondMed_l	malleolusLat_r	malleolusLat_l	malleolusMedv_r	malleolusMedv_l	neck	subclavicle_r	subclavicle_l	sternalnotch	xyphoidprocess	thighwand_r	thighwand_l	upperleg1_r	upperleg1_l	upperleg2_r	upperleg2_l	shankwand_r	shankwand_l	lowerleg1_r	lowerleg1_l	toe_r	toe_l
 	 	X1	Y1	Z1	X2	Y2	Z2	X3	Y3	Z3	X4	Y4	Z4	X5	Y5	Z5	X6	Y6	Z6	X7	Y7	Z7	X8	Y8	Z8	X9	Y9	Z9	X10	Y10	Z10	X11	Y11	Z11	X12	Y12	Z12	X13	Y13	Z13	X14	Y14	Z14	X15	Y15	Z15	X16	Y16	Z16	X17	Y17	Z17	X18	Y18	Z18	X19	Y19	Z19	X20	Y20	Z20	X21	Y21	Z21	X22	Y22	Z22	X23	Y23	Z23	X24	Y24	Z24	X25	Y25	Z25	X26	Y26	Z26	X27	Y27	Z27	X28	Y28	Z28	X29	Y29	Z29	X30	Y30	Z30	X31	Y31	Z31	X32	Y32	Z32	X33	Y33	Z33	X34	Y34	Z34	X35	Y35	Z35	X36	Y36	Z36	X37	Y37	Z37

	111	1.06667	2321.050	892.582	-237.608	2321.130	876.951	-187.251	2315.727	880.154	-293.636	2259.057	473.982	-188.545	2493.850	493.961	-318.311	2126.639	73.498	-188.421	2533.549	77.953	-307.033	2395.329	976.842	-241.390	2400.564	973.738	-138.321	2390.095	979.946	-344.458	2196.505	1000.584	-196.392	2191.025	998.983	-281.647	2274.517	471.417	-131.146	2491.199	496.532	-377.696	2243.896	493.544	-241.174	2487.942	487.818	-268.318	2129.974	72.407	-150.583	2523.822	75.988	-345.266	2123.787	81.804	-220.729	2538.702	92.268	-278.831	2249.661	1454.388	-218.176	2361.010	1379.843	-151.768	2337.621	1390.474	-306.044	2336.516	1386.389	-230.897	2376.409	1187.102	-257.517	2333.303	574.133	-52.133	2575.670	666.897	-338.681	2346.114	635.296	-122.978	2481.463	690.129	-372.064	2331.221	555.171	-147.751	2507.247	606.182	-367.252	2178.852	136.427	-86.447	2617.429	203.303	-323.013	2168.805	200.976	-141.002	2546.891	245.761	-323.828	2245.402	41.837	-216.852	2654.089	78.913	-322.011
	112	1.07500	2330.428	892.182	-237.363	2329.555	875.653	-187.589	2324.795	878.886	-294.003	2263.528	473.197	-188.515	2504.189	493.083	-318.088	2127.270	74.100	-188.272	2555.900	78.440	-307.465	2404.283	975.400	-241.264	2408.895	972.267	-138.153	2399.671	978.532	-344.375	2205.118	999.729	-197.306	2200.171	997.805	-282.554	2278.965	470.533	-131.114	2502.209	495.870	-377.490	2248.797	492.938	-241.050	2496.616	486.489	-268.570	2130.569	72.996	-150.432	2546.615	76.300	-345.799	2124.280	82.506	-220.654	2560.862	92.819	-279.185	2258.704	1453.060	-219.278	2369.961	1378.555	-152.568	2346.779	1389.011	-306.948	2345.574	1385.015	-231.768	2385.451	1185.685	-258.093	2338.836	572.903	-52.070	2584.835	666.294	-336.703	2352.011	634.005	-122.875	2491.088	689.312	-371.426	2336.573	553.955	-147.665	2517.079	605.367	-366.619	2179.973	136.478	-86.342	2636.446	206.276	-322.314	2170.607	201.167	-140.959	2564.806	246.690	-323.692	2245.540	41.859	-216.792	2676.849	80.702	-321.183
	113	1.08333	2339.330	891.094	-237.082	2338.058	874.325	-187.887	2333.964	877.568	-294.329	2268.331	472.440	-188.510	2514.378	492.087	-317.898	2127.979	74.771	-188.143	2577.348	79.061	-307.881	2413.318	973.922	-241.095	2417.285	970.779	-137.949	2409.350	977.065	-344.242	2213.785	998.804	-198.217	2209.408	996.603	-283.488	2283.616	469.699	-131.072	2513.128	495.134	-377.307	2254.025	492.221	-240.932	2505.249	485.087	-268.754	2131.196	73.670	-150.295	2568.520	76.783	-346.314	2124.783	83.282	-220.509	2582.101	93.491	-279.534	2267.825	1451.816	-220.426	2378.914	1377.286	-153.376	2356.009	1387.527	-307.859	2354.670	1383.648	-232.652	2394.392	1184.238	-258.595	2344.303	571.716	-51.932	2593.936	665.604	-334.581	2357.898	632.702	-122.652	2500.757	688.390	-370.739	2342.038	552.756	-147.448	2526.952	604.479	-365.891	2181.092	136.628	-86.220	2654.716	209.169	-321.570	2172.515	201.403	-140.823	2582.111	247.651	-323.485	2245.700	41.881	-216.717	2698.678	82.674	-320.328
	114	1.09167	2347.657	889.176	-236.860	2346.669	872.970	-188.147	2343.258	876.207	-294.613	2273.356	471.718	-188.515	2524.445	491.007	-317.740	2128.656	75.530	-188.065	2597.802	79.748	-308.283	2422.437	972.431	-240.888	2425.743	969.294	-137.708	2419.132	975.568	-344.068	2222.517	997.764	-199.139	2218.734	995.383	-284.456	2288.395	468.917	-131.015	2523.968	494.349	-377.144	2259.487	491.569	-240.844	2514.354	483.411	-269.109	2131.776	74.434	-150.209	2589.431	77.369	-346.813	2125.299	84.187	-220.267	2602.196	94.136	-279.879	2277.013	1450.546	-221.637	2387.946	1376.041	-154.225	2365.307	1386.049	-308.798	2363.839	1382.292	-233.570	2403.464	1182.812	-259.120	2349.717	570.591	-51.746	2603.010	664.856	-332.364	2363.901	631.447	-122.332	2510.271	687.326	-369.870	2347.609	551.598	-147.131	2536.885	603.553	-365.132	2182.211	136.908	-86.082	2672.166	211.910	-320.808	2174.504	201.727	-140.643	2598.700	248.580	-323.277	2245.879	41.906	-216.633	2719.460	84.839	-319.492
	115	1.10000	2356.920	888.216	-236.879	2355.399	871.613	-188.379	2352.684	874.827	-294.866	2278.552	471.041	-188.522	2534.395	489.878	-317.607	2129.289	76.402	-188.043	2617.171	80.440	-308.665	2431.650	970.952	-240.651	2434.282	967.836	-137.436	2429.017	974.067	-343.867	2231.347	996.630	-200.089	2228.142	994.159	-285.470	2293.280	468.195	-130.944	2534.720	493.540	-376.993	2265.157	490.947	-240.916	2523.348	481.681	-269.580	2132.303	75.308	-150.178	2609.240	77.993	-347.283	2125.895	85.250	-220.128	2621.078	94.696	-280.183	2286.204	1449.266	-222.868	2397.057	1374.820	-155.135	2374.699	1384.598	-309.792	2373.095	1380.954	-234.548	2412.751	1181.432	-259.722	2355.112	569.544	-51.545	2612.089	664.067	-330.096	2369.995	630.173	-122.034	2519.834	686.237	-369.011	2353.277	550.448	-146.850	2546.810	602.619	-364.399	2183.327	137.333	-85.943	2688.739	214.433	-320.065	2176.509	202.115	-140.519	2614.498	249.390	-323.107	2246.076	41.944	-216.546	2739.105	87.145	-318.706
